<?xml version="1.0" encoding="utf-8"?>
<!-- Generator: Adobe Illustrator 15.1.0, SVG Export Plug-In . SVG Version: 6.00 Build 0)  -->
<!DOCTYPE svg PUBLIC "-//W3C//DTD SVG 1.1//EN" "http://www.w3.org/Graphics/SVG/1.1/DTD/svg11.dtd">
<svg version="1.1" id="Layer_1" xmlns="http://www.w3.org/2000/svg" xmlns:xlink="http://www.w3.org/1999/xlink" x="0px" y="0px"
	 width="1000px" height="300px" viewBox="0 0 1000 300" enable-background="new 0 0 1000 300" xml:space="preserve">
<path fill="#3FCFD2" d="M31.997,40.244v182.784h-5.12V40.244H31.997z"/>
<path fill="#3FCFD2" d="M278.007,223.028v-32.513h-0.512c-2.392,10.24-7.64,18.688-15.744,25.345
	c-8.108,6.655-18.648,9.983-31.616,9.983c-6.828,0-13.1-0.983-18.816-2.944c-5.72-1.959-10.668-4.947-14.848-8.959
	c-4.184-4.009-7.424-8.961-9.728-14.849c-2.304-5.888-3.456-12.672-3.456-20.353V91.444h5.12v86.527
	c0,7.68,1.108,14.208,3.328,19.584c2.216,5.376,5.248,9.816,9.088,13.312c3.84,3.5,8.276,6.06,13.312,7.68
	c5.032,1.624,10.368,2.432,16,2.432c7.848,0,14.76-1.492,20.736-4.479c5.972-2.984,10.964-6.996,14.976-12.032
	c4.008-5.031,7.04-10.88,9.088-17.536c2.048-6.655,3.072-13.651,3.072-20.991V91.444h5.12v131.584H278.007z"/>
<path fill="#DA8D6D" d="M357.266,101.242c-1.518,0.475-4.606,1.631-5.779,2.171c-1.68,0.774-5.998,2.782-8.47,4.192
	c-4.163,2.373-10.408,5.861-15.107,11.72c-4.704,5.864-9.278,13.738-11.077,19.68c-1.084,7.713-0.939,8.3-0.902,18.439
	l-0.251,65.812l-5.786-0.078L309.797,91h5.786l-0.19,36.204c0,0,0,0.037,0.991-1.568c1.462-2.369,4.802-6.81,6.597-8.923
	c2.067-2.435,6.834-7.005,9.358-8.937c4.072-3.118,10.606-5.946,15.209-8.355c0.768-0.402,4.478-1.847,5.986-2.414
	c1.418-0.533,1.197-0.482,2.854-1.01c2.728-0.869,5.974-1.762,5.974-1.762l2.481,4.644c0,0-0.598,0.294-3.046,1.019
	C359.57,100.559,360.494,100.25,357.266,101.242z"/>
<path fill="#DA8D6D" d="M452.631,231.397l4.266-6.166c0,0-0.039-0.009-1.683-0.834c-2.644-1.326-2.644-1.326-3.782-2.027
	c-1.511-0.932-2.531-1.359-5.01-3.348c-1.127-0.903-1.499-1.199-2.531-2.438c-1.063-1.275-2.5-4.156-2.863-6.695v-83.711
	c-0.172-7.168-1.452-13.14-3.84-17.92c-2.392-4.776-5.548-8.66-9.472-11.648c-3.928-2.984-8.492-5.076-13.696-6.272
	c-5.208-1.192-10.712-1.792-16.512-1.792c-8.192,0-21.376,3.328-21.376,3.328l2.944,4.32c0,0,11.52-2.528,18.432-2.528
	c8.704,0,15.616,1.152,20.736,3.456c5.12,2.304,9,5.248,11.648,8.832c2.644,3.584,4.308,7.512,4.992,11.776
	c0.68,4.268,1.024,8.364,1.024,12.288c0,4.952-0.984,8.748-2.944,11.392c-1.964,2.648-5.036,4.608-9.216,5.888
	c-4.184,1.28-9.516,2.136-16,2.56c-6.488,0.428-14.252,0.896-23.296,1.408c-5.464,0.345-10.924,1.067-16.384,2.177
	c-5.464,1.111-10.328,3.071-14.592,5.887c-4.268,2.815-7.724,6.7-10.368,11.647c-2.648,4.953-3.968,11.521-3.968,19.713
	c0,11.775,4.008,20.607,12.032,26.496c8.02,5.888,18.688,8.832,32,8.832c6.824,0,13.14-0.896,18.944-2.688
	c5.8-1.792,10.964-4.224,15.488-7.296c4.52-3.072,8.276-6.568,11.264-10.496c2.984-3.924,5.16-8.02,6.528-12.288h0.512l-0.173,17.96
	c0.812,4.5,1.704,6.05,4.397,9.305c1.791,2.162,4.378,4.979,8.228,8.12C449.845,229.847,452.631,231.397,452.631,231.397z
	 M435.908,170.21c0,6.488-1.152,12.801-3.456,18.944c-2.304,6.144-5.72,11.563-10.24,16.256
	c-4.524,4.696-10.112,8.492-16.768,11.392c-6.656,2.904-14.252,4.353-22.784,4.353c-7.168,0-13.184-0.896-18.048-2.688
	c-4.864-1.791-8.832-4.096-11.904-6.912c-3.072-2.815-5.248-6.056-6.528-9.728c-1.28-3.668-1.92-7.38-1.92-11.136
	c0-6.996,1.108-12.672,3.328-17.024c2.216-4.353,5.204-7.764,8.96-10.239c3.752-2.472,8.064-4.181,12.928-5.12
	c4.864-0.936,9.856-1.576,14.976-1.92c5.12-0.34,10.368-0.596,15.744-0.768c5.376-0.168,10.368-0.597,14.976-1.28
	c4.608-0.681,8.704-1.664,12.288-2.944c3.584-1.28,6.228-3.112,7.936-5.504h0.512V170.21z"/>
<path fill="#3FCFD2" d="M576.327,91.006v35.326h-0.512c-1.368-5.5-3.544-10.571-6.528-15.213
	c-2.987-4.641-6.655-8.678-11.008-12.119c-4.352-3.437-9.26-6.144-14.72-8.122c-5.464-1.974-11.353-2.966-17.664-2.966
	c-9.216,0-20.302,1.848-27.667,5.54c-7.369,3.695-13.54,8.724-18.508,15.095c-4.972,6.37-8.7,13.757-11.185,22.158
	c-2.488,8.404-3.728,17.406-3.728,27.005c0,9.049,1.198,17.726,3.595,26.035s5.946,15.558,10.652,21.743
	c4.702,6.188,10.606,11.125,17.709,14.817c7.099,3.696,15.445,5.539,25.033,5.539c5.857,0,11.67-0.874,17.441-2.631
	c5.767-1.753,11.093-4.336,15.979-7.755c4.881-3.414,9.142-7.617,12.782-12.604c3.637-4.984,6.166-10.615,7.59-16.896h0.532
	l0.206,33.2c0,16.504-4.312,28.578-12.928,36.229c-8.62,7.647-22.384,12.969-39.853,10.259c-7.542-1.17-9.217-1.521-13.5-2.875
	c-5.714-1.94-10.731-5.037-16.978-8.603c-6.194-3.536-11.974-8.123-17.571-12.974c-2.992-2.535-6.066-5.295-11.219-10.787
	l-3.952,6.155c0,0,5.441,4.803,7.971,7.081c4.245,3.739,10.452,8.467,19.346,14.875c6.995,4.404,11.566,6.91,19.814,9.877
	c5.661,1.498,12.559,3.653,23.904,3.644c21.418-0.019,26.19-4.276,35.75-12.784c9.556-8.51,14.336-21.879,14.336-40.098V91.006
	H576.327z M572.261,181.943c-2.397,7.664-5.859,14.312-10.387,19.942c-4.527,5.635-10.164,10.109-16.91,13.434
	c-6.748,3.323-14.559,4.985-23.434,4.985c-8.347,0-15.713-1.614-22.103-4.847c-6.392-3.229-11.763-7.66-16.112-13.295
	c-4.353-5.631-7.635-12.23-9.853-19.804c-2.222-7.569-3.329-15.788-3.329-24.65c0-8.677,1.106-16.895,3.329-24.65
	c2.218-7.756,5.592-14.584,10.12-20.497c4.527-5.907,10.119-10.568,16.776-13.987c6.658-3.415,14.422-5.124,23.303-5.124
	c8.521,0,17.679,1.293,23.994,4.646c6.312,3.353,11.561,7.824,15.744,13.409c4.18,5.588,7.336,11.99,9.472,19.21
	c2.132,7.22,3.2,14.613,3.2,22.175C576.071,160.801,574.656,174.283,572.261,181.943z"/>
<path fill="#3FCFD2" d="M690.198,101.189c5.029,3.23,9.383,7.192,13.058,11.887c4.608,5.888,8.064,12.672,10.368,20.352
	c2.304,7.68,3.456,15.616,3.456,23.808c0,8.363-1.152,16.384-3.456,24.063s-5.76,14.464-10.368,20.352
	c-4.608,5.889-10.284,10.584-17.024,14.08c-6.743,3.5-14.464,5.248-23.168,5.248c-8.876,0-16.684-1.748-23.424-5.248
	c-6.744-3.496-12.416-8.191-17.023-14.08c-4.608-5.888-8.064-12.672-10.368-20.352s-3.456-15.7-3.456-24.063
	c0-8.192,1.152-16.128,3.456-23.808c2.304-7.68,5.76-14.464,10.368-20.352c3.674-4.694,8.022-8.656,13.054-11.886l0,0l-2.979-4.281
	l0,0c-2.962,1.908-5.707,4.051-8.233,6.426c-1.985,1.866-3.837,3.876-5.554,6.029c-5.036,6.316-8.832,13.612-11.393,21.888
	c-2.56,8.28-3.84,16.94-3.84,25.984c0,9.048,1.28,17.708,3.84,25.983c2.561,8.28,6.356,15.576,11.393,21.889
	c5.031,6.315,11.22,11.352,18.56,15.104c7.336,3.752,15.784,5.632,25.344,5.632c9.729,0,18.261-1.88,25.601-5.632
	c7.336-3.752,13.523-8.788,18.56-15.104C712,198.796,715.8,191.5,718.36,183.22c2.56-8.275,3.84-16.936,3.84-25.983
	c0-9.044-1.28-17.704-3.84-25.984c-2.561-8.276-6.36-15.572-11.393-21.888c-1.729-2.167-3.593-4.188-5.593-6.064
	c-2.529-2.373-5.275-4.513-8.238-6.42"/>
<path fill="#3FCFD2" d="M748.567,91.444v32.512h0.512c1.192-5.12,3.112-9.812,5.76-14.08c2.645-4.264,5.973-8.02,9.984-11.264
	c4.008-3.24,8.66-5.76,13.952-7.552c5.288-1.792,11.176-2.688,17.664-2.688c6.824,0,13.096,1.024,18.815,3.072
	c5.716,2.048,10.664,5.08,14.849,9.088c4.18,4.012,7.424,8.96,9.728,14.848s3.456,12.672,3.456,20.352v87.296h-5.12V136.5
	c0-7.68-1.111-14.208-3.328-19.584c-2.22-5.376-5.248-9.812-9.088-13.312c-3.84-3.496-8.28-6.056-13.312-7.68
	c-5.036-1.62-10.368-2.432-16-2.432c-7.853,0-14.765,1.496-20.736,4.48c-5.976,2.988-10.968,7-14.976,12.032
	c-4.013,5.036-7.04,10.88-9.088,17.536c-2.049,6.656-3.072,13.656-3.072,20.992v74.496h-5.12V91.444H748.567z"/>
<path fill="#3FCFD2" d="M973.344,131.604c-0.005-0.011-0.007-0.021-0.013-0.032c-0.024,0.011-0.052,0.024-0.077,0.039
	c-2.946-6.897-6.593-13.244-10.959-19.025c-5.205-6.883-11.224-12.409-18.061-16.575c-6.841-4.162-14.438-6.618-22.803-7.368
	c-8.364-0.746-17.268,0.86-26.711,4.823c-6.769,2.84-12.784,7.029-18.046,12.57c-5.267,5.54-9.198,12.049-11.796,19.524
	c-2.602,7.477-3.747,15.779-3.435,24.901c0.312,9.126,2.584,18.724,6.808,28.793c3.765,8.969,8.303,16.921,13.617,23.852
	c5.313,6.933,11.303,12.378,17.961,16.34c6.662,3.963,13.992,6.113,22.003,6.453c8.008,0.34,16.701-1.551,26.079-5.667
	c9.618-4.036,17.354-9.532,23.271-16.436c-1.588-0.612-3.14-1.339-4.644-2.121c-5.361,5.871-12.335,10.641-20.98,14.269
	c-8.658,3.633-16.602,5.21-23.838,4.727c-7.234-0.478-13.829-2.524-19.786-6.133c-5.955-3.609-11.31-8.533-16.057-14.779
	c-4.748-6.241-8.182-14.587-12.692-22.318l-1.772-4.22c-2.17-9.083-4.75-16.711-4.911-24.604
	c-0.164-7.887,0.909-15.139,3.224-21.758c2.313-6.614,5.812-12.385,10.503-17.317c4.687-4.925,10.335-8.778,16.945-11.552
	c7.867-3.3,15.402-4.749,22.606-4.349c7.202,0.404,13.866,2.28,19.992,5.631c6.127,3.354,11.613,7.945,16.469,13.773
	c4.85,5.833,8.83,12.444,11.933,19.839c0,0-0.655,1.142-0.425,1.529c0.146-0.079-0.011-0.015,0.146-0.079
	c0,0,1.269-0.805,2.04-1.163c0.084-0.066,3.284-1.381,3.363-1.458c0.032-0.031,0.041-0.046,0.062-0.067
	C973.354,131.632,973.35,131.617,973.344,131.604z"/>
<path fill="#DA8D6D" d="M383.686,94.821"/>
<path fill="#DA8D6D" d="M376.132,90.7"/>
<path fill="#DA8D6D" d="M365.194,94.35"/>
<path fill="#DA8D6D" d="M379.076,96.021"/>
<path fill="#DA8D6D" d="M368.359,99.303"/>
<rect x="661" y="84" fill="#3FCFD2" width="5" height="76"/>
<path fill="#3FCFD2" d="M696.762,106.161"/>
<path fill="#3FCFD2" d="M629.081,106.186"/>
<path fill="#3FCFD2" d="M701.371,103.303"/>
<path fill="#3FCFD2" d="M624.46,103.339"/>
<path fill="#3FCFD2" d="M690.199,101.193"/>
<path fill="#3FCFD2" d="M635.671,101.191"/>
<path fill="#3FCFD2" d="M693.134,96.884"/>
<path fill="#3FCFD2" d="M632.692,96.911"/>
<path fill="none" d="M870.739,171.61c1.952-3.256,1.83-3.231,4.812-5.731c4.483-3.763,9.841-6.825,16.073-9.197
	c6.227-2.367,12.53-4.357,18.909-5.977c10.576-2.624,19.647-4.904,27.22-6.845c7.569-1.937,13.695-4.027,18.384-6.264
	c4.683-2.235,8.849-5.265,10.648-8.323"/>
<path fill="none" stroke="#3FCFD2" stroke-width="6" stroke-miterlimit="10" d="M970.701,130.205
	c-1.551,2.748-5.854,6.169-9.834,8.265c-3.979,2.095-8.622,4.021-13.927,5.769c-5.303,1.751-11.112,3.342-17.426,4.768
	c-6.309,1.429-12.451,2.911-18.428,4.445c-5.977,1.538-11.743,3.337-17.301,5.396c-5.558,2.062-10.312,4.749-14.258,8.054
	c-3.949,3.309-6.088,9.826-7.854,14.614"/>
<path id="XMLID_3_" fill="#DA8D6D" d="M376.132,91.7"/>
<path id="XMLID_2_" fill="#DA8D6D" d="M362.362,94.236"/>
<path fill="#DA8D6D" d="M379.076,96.021"/>
<path fill="#DA8D6D" d="M364.603,98.929"/>
<path fill="#3FCFD2" d="M165.13,230.622l4.266-6.166c0,0-0.039-0.008-1.683-0.834c-2.644-1.326-2.644-1.326-3.782-2.027
	c-1.511-0.932-2.531-1.359-5.01-3.348c-1.127-0.902-1.499-1.199-2.531-2.438c-1.063-1.275-2.5-4.156-2.862-6.695v-83.71
	c-0.172-7.168-1.452-13.14-3.84-17.92c-2.393-4.776-5.549-8.66-9.473-11.648c-3.928-2.984-8.492-5.076-13.695-6.272
	c-5.208-1.192-10.713-1.792-16.513-1.792c-8.191,0-21.376,3.328-21.376,3.328l2.944,4.32c0,0,11.52-2.528,18.432-2.528
	c8.704,0,15.616,1.152,20.736,3.456c5.12,2.304,9,5.248,11.647,8.832c2.645,3.584,4.309,7.512,4.992,11.776
	c0.681,4.268,1.024,8.364,1.024,12.288c0,4.952-0.984,8.748-2.944,11.392c-1.964,2.648-5.036,4.608-9.216,5.888
	c-4.184,1.28-9.516,2.136-16,2.56c-6.488,0.428-14.252,0.896-23.296,1.408c-5.464,0.344-10.924,1.068-16.384,2.176
	c-5.464,1.111-10.328,3.072-14.593,5.889c-4.268,2.814-7.724,6.698-10.367,11.646c-2.648,4.953-3.969,11.521-3.969,19.713
	c0,11.775,4.009,20.607,12.032,26.496c8.021,5.889,18.688,8.832,32,8.832c6.824,0,13.141-0.896,18.944-2.688
	c5.8-1.793,10.964-4.225,15.488-7.297c4.52-3.072,8.275-6.568,11.264-10.496c2.984-3.924,5.16-8.02,6.528-12.287h0.512
	l-0.174,17.959c0.812,4.5,1.704,6.051,4.397,9.305c1.791,2.162,4.379,4.979,8.228,8.121
	C162.345,229.071,165.13,230.622,165.13,230.622z M148.407,169.435c0,6.488-1.152,12.801-3.456,18.945
	c-2.304,6.143-5.72,11.562-10.24,16.256c-4.523,4.695-10.112,8.492-16.768,11.391c-6.656,2.904-14.252,4.354-22.784,4.354
	c-7.168,0-13.185-0.896-18.048-2.689c-4.864-1.791-8.832-4.096-11.904-6.912c-3.072-2.814-5.248-6.055-6.528-9.727
	c-1.279-3.668-1.92-7.381-1.92-11.137c0-6.996,1.108-12.672,3.328-17.023c2.216-4.354,5.204-7.764,8.96-10.24
	c3.752-2.472,8.064-4.179,12.928-5.12c4.864-0.936,9.856-1.576,14.977-1.92c5.12-0.34,10.368-0.596,15.744-0.768
	c5.376-0.168,10.368-0.596,14.976-1.279c4.608-0.681,8.704-1.664,12.288-2.945c3.584-1.28,6.229-3.112,7.937-5.504h0.512V169.435z"
	/>
</svg>
