<?xml version="1.0" encoding="utf-8"?>
<!-- Generator: Adobe Illustrator 15.1.0, SVG Export Plug-In . SVG Version: 6.00 Build 0)  -->
<!DOCTYPE svg PUBLIC "-//W3C//DTD SVG 1.1//EN" "http://www.w3.org/Graphics/SVG/1.1/DTD/svg11.dtd">
<svg version="1.1" id="Layer_1" xmlns="http://www.w3.org/2000/svg" xmlns:xlink="http://www.w3.org/1999/xlink" x="0px" y="0px"
	 width="1024px" height="400px" viewBox="0 0 1024 400" enable-background="new 0 0 1024 400" xml:space="preserve">
<polyline id="XMLID_2_" fill="none" stroke="#CC9966" stroke-width="3" stroke-miterlimit="10" points="1020.5,358.667 1020.5,194 
	1016,194 1016,167.5 1011,167 1011,149 1008,141 1005,137.5 1005,125.5 1002,121 1002,102 999,95.5 999,82 999,67.5 995.334,49.333 
	992.667,68.666 992.667,81.999 992.667,95.333 988.667,101.333 988.667,119.999 984,125.333 984,137.333 979.334,143.333 
	976,151.37 976,167.333 973.334,167.333 973.334,194 969.334,194 969.334,303.332 966,304.666 966,283 946,284.666 942.667,284.666 
	936,292 936,274.666 922.667,276.666 922.667,283.999 919.334,286.666 919.334,303.999 914,305.999 914,311.332 898.667,313.332 
	898.5,322 890.667,322.666 890.667,309.999 885.334,311.332 876.667,301.999 854.5,301 854.087,242.826 815.334,242.666 
	815.334,274.666 802,275.999 802,294 798,294 798,305.332 792.667,307.332 792.667,263.332 790,255.332 782,255.332 
	775.334,263.999 772.667,279.332 770.985,264.201 770,255.332 751.334,255.999 751.334,261.999 742,264 742.5,311 716,310.666 
	716,314 716,288 712,288.666 712,281.333 708.666,281.333 708.666,266 703,264.5 702,281.333 697.333,282 697.333,288.666 
	693.333,290 693.333,318 689.333,327.333 689.333,250.666 648,252 648,322.666 639.333,328 639.333,337.333 630,333.333 
	630,321.333 625.333,317.333 621.333,324 614,324 608,334 600,337.333 600,287.333 600,279.333 595.333,284 584,245.333 
	572.666,281.333 568,278 567.062,280.29 562,292.667 562,319.333 558,321.333 558,312.666 538,312.666 538,319.333 532.666,320 
	532.666,326.666 529.333,327.333 529.333,254 498.667,257.334 498.667,292.667 491.333,292.667 491.333,306 488,306 488,314.667 
	477.333,317.334 477.333,308 467.333,308.667 467.333,317.334 462.667,318 462.667,296.667 450.667,295.334 450.667,287.334 
	423.333,286.667 423.333,292.667 417.333,292.667 417.333,302 406.667,303.334 406.667,310 394.667,314 394.667,322 
	390.667,322.667 390.667,332.667 384,335.334 384,290 384,276 379.333,248 374.667,222.667 370,249.334 363.333,276.667 
	363.333,286 359.333,287.334 359.333,323.334 335.333,323.334 335.333,303.334 330,303.334 330,289.334 317.333,291.334 
	317.333,303.334 312.667,303.334 312.667,347.334 307.333,347.334 301,340.5 295.333,348.5 295.333,340.667 295.333,244 276,244 
	276,332.667 271.333,334.667 271.333,320.667 262.667,320.667 262.667,330 255.333,330 255.333,326.667 237.333,326.667 
	227.333,323.334 215.333,323.334 215.333,336.667 210,341 210,348 201.333,350 201.333,358.667 183.333,358.667 183.333,343.334 
	176.667,343.334 176.667,323.334 139.333,323.334 139.333,334.667 131.333,331 124.667,331 118.667,334.667 118.667,331 
	113.333,331 113.333,327.334 109.333,327.334 109.333,331.334 105.333,331.334 105.333,334.667 88,334.667 4,335.334 "/>
</svg>
